Coordinates
version=1
nRows=13
nColumns=40
inDegrees=yes

Units are S.I. units (second, meters, Newtons, ...)
If the header above contains a line with 'inDegrees', this indicates whether rotational values are in degrees (yes) or radians (no).

endheader
time	pelvis_tilt	pelvis_list	pelvis_rotation	pelvis_tx	pelvis_ty	pelvis_tz	hip_flexion_r	hip_adduction_r	hip_rotation_r	knee_angle_r	knee_angle_r_beta	ankle_angle_r	subtalar_angle_r	mtp_angle_r	hip_flexion_l	hip_adduction_l	hip_rotation_l	knee_angle_l	knee_angle_l_beta	ankle_angle_l	subtalar_angle_l	mtp_angle_l	lumbar_extension	lumbar_bending	lumbar_rotation	arm_flex_r	arm_add_r	arm_rot_r	elbow_flex_r	pro_sup_r	wrist_flex_r	wrist_dev_r	arm_flex_l	arm_add_l	arm_rot_l	elbow_flex_l	pro_sup_l	wrist_flex_l	wrist_dev_l
      4.35500000	    -38.08251269	      6.11850157	      8.80885123	     -0.39184837	      0.76069966	     -0.90883043	     92.99569619	    -23.68332392	      4.06927276	     82.12768837	      1.43339857	     31.38171467	      0.00000000	      0.00000000	     88.89333504	      1.57316077	     -1.51449062	     77.44386546	      1.35165044	     30.68307681	      0.00000000	      0.00000000	    -38.61810489	      2.71178338	    -15.38144585	      6.53523782	    -63.15214681	     72.80122473	    109.32126017	     87.90551094	      0.00000000	      0.00000000	      1.78955376	    -63.10199741	     68.79436855	    103.06047912	     88.12995253	      0.00000000	      0.00000000
      4.36000000	    -38.28530278	      5.91020669	      8.75338121	     -0.39170211	      0.76252181	     -0.90850856	     92.85589426	    -23.42781647	      3.94115310	     81.68586706	      1.42568733	     31.24838078	      0.00000000	      0.00000000	     88.91176370	      1.58347732	     -1.18321844	     77.04302084	      1.34465438	     30.52472998	      0.00000000	      0.00000000	    -37.95107192	      2.75189177	    -15.19467454	      6.61456706	    -63.17699138	     72.88948756	    109.34249566	     87.90001122	      0.00000000	      0.00000000	      1.80423541	    -63.03223803	     68.84110254	    103.01638518	     88.12666077	      0.00000000	      0.00000000
      4.36500000	    -37.33982790	      5.99778121	      8.55009470	     -0.38858951	      0.76701682	     -0.90808072	     91.30590433	    -23.34304396	      3.68899535	     81.26824537	      1.41839846	     31.25723055	      0.00000000	      0.00000000	     87.45799820	      1.54322363	     -1.08186389	     76.65257756	      1.33783986	     30.52519611	      0.00000000	      0.00000000	    -38.62806654	      2.69850671	    -15.07394620	      6.84880017	    -62.96082739	     72.99333871	    109.04781650	     87.88653924	      0.00000000	      0.00000000	      2.00899105	    -62.78128544	     68.86619311	    102.61200729	     88.11934626	      0.00000000	      0.00000000
      4.37000000	    -40.22453125	      6.42764491	      4.97650274	     -0.39540101	      0.76331415	     -0.89967061	     94.55610569	    -18.08432752	      5.28619839	     79.99169613	      1.39611847	     30.16833028	      0.00000000	      0.00000000	     90.55184598	     -2.60687670	     -1.73144894	     76.62952441	      1.33743751	     30.06087055	      0.00000000	      0.00000000	    -35.05197081	     -0.68963705	    -12.44595749	      6.66855075	    -62.88643558	     73.43004890	    109.52190479	     87.87952428	      0.00000000	      0.00000000	      1.38149869	    -63.64964785	     68.70825869	    103.36623506	     88.12864325	      0.00000000	      0.00000000
      4.37500000	    -37.29502301	      5.66143383	      9.01734100	     -0.38712779	      0.77254088	     -0.90931961	     90.37807372	    -23.70953651	      3.25508845	     80.30185487	      1.40153176	     31.23390304	      0.00000000	      0.00000000	     86.83631921	      2.38796450	     -0.26627351	     75.62493295	      1.31990408	     30.37132048	      0.00000000	      0.00000000	    -37.67108559	      3.24472245	    -15.16183877	      7.05342732	    -63.13820928	     73.29235367	    109.13403020	     87.87375919	      0.00000000	      0.00000000	      2.04490261	    -62.39569695	     68.80255151	    102.31708071	     88.11686031	      0.00000000	      0.00000000
      4.38000000	    -38.81126407	      5.99783524	      5.10939830	     -0.39064993	      0.77154080	     -0.89975959	     91.92768583	    -18.33544137	      4.54645964	     79.08484841	      1.38029099	     30.35379279	      0.00000000	      0.00000000	     88.33156188	     -2.09691634	     -0.95185688	     75.70663166	      1.32132999	     30.13790780	      0.00000000	      0.00000000	    -35.64146735	     -0.05938153	    -12.24346401	      7.10990544	    -62.75710576	     73.66893889	    109.29903453	     87.86742122	      0.00000000	      0.00000000	      1.57243069	    -63.15033753	     68.51172017	    102.81167409	     88.12099007	      0.00000000	      0.00000000
      4.38500000	    -36.06258628	      5.90365947	      9.05005438	     -0.38230416	      0.78084031	     -0.90957258	     88.12373586	    -23.84603701	      3.12937446	     79.41748432	      1.38609659	     30.93173598	      0.00000000	      0.00000000	     84.57913339	      2.83500245	     -0.03792758	     74.53890165	      1.30094925	     30.13434404	      0.00000000	      0.00000000	    -38.04231526	      3.18569512	    -15.28175581	      7.26813191	    -62.74519457	     73.41329473	    108.67890403	     87.83963632	      0.00000000	      0.00000000	      2.09393823	    -61.86287498	     68.63697106	    101.45064821	     88.11678860	      0.00000000	      0.00000000
      4.39000000	    -38.42738292	      5.86680267	      3.66404811	     -0.38819597	      0.77770998	     -0.89598455	     90.57322845	    -16.38095585	      4.53861310	     77.81828437	      1.35818528	     30.13311024	      0.00000000	      0.00000000	     87.24998000	     -3.50814070	     -0.65385575	     74.98149534	      1.30867397	     30.04355769	      0.00000000	      0.00000000	    -34.94095841	     -0.94654523	    -10.90111272	      7.24696370	    -62.48887667	     73.97633922	    109.12816473	     87.85759525	      0.00000000	      0.00000000	      1.35675876	    -63.07317862	     68.16580461	    102.47888955	     88.11006259	      0.00000000	      0.00000000
      4.39500000	    -38.20381460	      5.88763405	      3.38759286	     -0.38678307	      0.78108884	     -0.89552180	     89.91515154	    -16.02459022	      4.58012366	     77.23788871	      1.34805547	     29.97671099	      0.00000000	      0.00000000	     86.63315359	     -3.61924260	     -0.52075082	     74.49795232	      1.30023455	     29.94133239	      0.00000000	      0.00000000	    -34.57943128	     -1.13237815	    -10.62188011	      7.24670719	    -62.45135866	     73.98838068	    109.08551819	     87.85124904	      0.00000000	      0.00000000	      1.28668558	    -62.98457863	     68.02586565	    102.36083132	     88.10449170	      0.00000000	      0.00000000
      4.40000000	    -37.54671051	      5.74925343	      3.99632406	     -0.38403729	      0.78572368	     -0.89716787	     88.61742309	    -16.77307838	      4.33967129	     76.69853476	      1.33864196	     29.88750494	      0.00000000	      0.00000000	     85.45533022	     -2.70993624	     -0.17617625	     73.79838589	      1.28802482	     29.89412819	      0.00000000	      0.00000000	    -34.66221963	     -0.55274064	    -10.94939369	      7.25532287	    -62.45923621	     73.93812867	    108.80942877	     87.83937799	      0.00000000	      0.00000000	      1.34130447	    -62.57807072	     67.87611521	    101.91835865	     88.09517289	      0.00000000	      0.00000000
      4.40500000	    -36.85133324	      5.64486927	      3.83593470	     -0.38128524	      0.79017152	     -0.89668083	     87.32879655	    -16.64460456	      4.05642896	     76.20854188	      1.33008997	     29.88744281	      0.00000000	      0.00000000	     84.26589529	     -2.69424163	      0.13342756	     73.27642145	      1.27891482	     29.82797968	      0.00000000	      0.00000000	    -34.73812994	     -0.51510784	    -10.73011161	      7.25582595	    -62.30079079	     73.94448379	    108.68708870	     87.82950226	      0.00000000	      0.00000000	      1.23252522	    -62.34217456	     67.75270280	    101.54347873	     88.08629364	      0.00000000	      0.00000000
      4.41000000	    -32.83874840	      5.22089466	      8.79615126	     -0.37027321	      0.80211505	     -0.90942919	     81.47182003	    -23.57702543	      0.99665539	     76.47701380	      1.33477569	     31.44879236	      0.00000000	      0.00000000	     79.08319587	      3.38072532	      2.10428482	     72.10357155	      1.25844473	     30.37325521	      0.00000000	      0.00000000	    -38.24097905	      3.91975318	    -14.35053974	      7.49931150	    -62.67359193	     73.69526559	    108.19440198	     87.82788338	      0.00000000	      0.00000000	      1.72967552	    -60.71533300	     67.69982691	    100.18474206	     88.07968008	      0.00000000	      0.00000000
      4.41500000	    -35.44183581	      5.57609981	      2.16470079	     -0.37541440	      0.79845911	     -0.89259255	     84.72997611	    -14.76991345	      3.94196445	     74.96728301	      1.30842592	     30.09748047	      0.00000000	      0.00000000	     81.86782585	     -4.29653119	      0.14747065	     72.65036587	      1.26798809	     30.16890176	      0.00000000	      0.00000000	    -34.72787441	     -1.45841339	     -9.30500199	      7.28856070	    -61.85970234	     74.05834745	    108.22759919	     87.81856238	      0.00000000	      0.00000000	      0.38954309	    -62.07413396	     66.75720451	    100.95958189	     88.06982777	      0.00000000	      0.00000000
